<?xml version="1.0" encoding="utf-8"?>
<!-- Generator: Adobe Illustrator 21.0.0, SVG Export Plug-In . SVG Version: 6.00 Build 0)  -->
<svg version="1.1"
	 id="svg8499" inkscape:version="0.92.1 r15371" sodipodi:docname="polylearnv2.svg" xmlns:cc="http://creativecommons.org/ns#" xmlns:dc="http://purl.org/dc/elements/1.1/" xmlns:inkscape="http://www.inkscape.org/namespaces/inkscape" xmlns:rdf="http://www.w3.org/1999/02/22-rdf-syntax-ns#" xmlns:sodipodi="http://sodipodi.sourceforge.net/DTD/sodipodi-0.dtd" xmlns:svg="http://www.w3.org/2000/svg"
	 xmlns="http://www.w3.org/2000/svg" xmlns:xlink="http://www.w3.org/1999/xlink" x="0px" y="0px" viewBox="0 0 405.1 87.5"
	 style="enable-background:new 0 0 405.1 87.5;" xml:space="preserve">
<style type="text/css">
	.st0{fill:#1C2450;}
</style>
<sodipodi:namedview  bordercolor="#666666" borderopacity="1.0" fit-margin-bottom="0" fit-margin-left="0" fit-margin-right="0" fit-margin-top="0" id="base" inkscape:current-layer="layer1" inkscape:cx="101.67339" inkscape:cy="193.98906" inkscape:document-units="mm" inkscape:pageopacity="0.0" inkscape:pageshadow="2" inkscape:window-height="1052" inkscape:window-maximized="1" inkscape:window-width="1893" inkscape:window-x="27" inkscape:window-y="0" inkscape:zoom="0.59882813" pagecolor="#ffffff" showgrid="false">
	</sodipodi:namedview>
<g id="layer1" transform="translate(-52.707851,-151.44973)" inkscape:groupmode="layer" inkscape:label="Calque 1">
	<path id="ellipse8443" inkscape:connector-curvature="0" class="st0" d="M114.3,151.4c-7.1,0-12.9,5.8-12.9,12.9
		c0,4.5,2.3,8.4,5.7,10.7l-3.4,10.1c-1.6-0.4-3.2-0.6-4.9-0.6c-5.1,0-9.8,2.1-13.2,5.4l-5.1-5.4c0.8-1.3,1.3-2.8,1.3-4.4
		c0-4.5-3.7-8.1-8.1-8.1c-4.5,0-8.1,3.6-8.1,8.1c0,4.5,3.7,8.1,8.1,8.1c1.8,0,3.5-0.6,4.8-1.6l5.2,5.5c-2.4,3.2-3.9,7.2-3.9,11.5
		c0,4.1,1.3,8,3.6,11.1l-11.5,6.2c-2-2.6-5.1-4.2-8.6-4.2c-6,0-10.8,4.9-10.8,10.8c0,6,4.9,10.8,10.8,10.8c6,0,10.8-4.9,10.8-10.8
		c0-1.5-0.3-2.8-0.8-4.1l11.9-6.4c3.4,3.5,8.2,5.6,13.5,5.6c4.7,0,9-1.7,12.3-4.6l6.9,7.4c-1,1.4-1.6,3.2-1.6,5
		c0,4.8,3.9,8.6,8.6,8.6s8.6-3.9,8.6-8.6c0-4.8-3.9-8.6-8.6-8.6c-1.9,0-3.6,0.6-5,1.6l-6.9-7.4c2.9-3.3,4.6-7.7,4.6-12.4
		c0-1.2-0.1-2.4-0.3-3.6l7.9-4c1.5,1.9,3.7,3.1,6.3,3.1c4.4,0,8-3.6,8-8c0-4.4-3.6-8-8-8c-4.4,0-8,3.6-8,8c0,0.9,0.1,1.7,0.4,2.5
		l-7.3,3.7c-1.8-4.9-5.5-8.9-10.3-11l3.2-9.7c1.4,0.5,3,0.9,4.6,0.9c7.1,0,12.9-5.8,12.9-12.9C127.2,157.2,121.4,151.4,114.3,151.4
		L114.3,151.4z M114.3,154.3c5.6,0,10,4.5,10,10c0,5.6-4.5,10-10,10c-5.6,0-10-4.5-10-10C104.3,158.8,108.7,154.3,114.3,154.3z
		 M73.8,174.7c2.9,0,5.3,2.3,5.3,5.3s-2.3,5.3-5.3,5.3c-2.9,0-5.3-2.4-5.3-5.3C68.5,177.1,70.9,174.7,73.8,174.7z M131.7,185.7
		c2.9,0,5.2,2.3,5.2,5.2c0,2.9-2.3,5.2-5.2,5.2c-2.9,0-5.2-2.3-5.2-5.2S128.8,185.7,131.7,185.7z M98.9,187.3
		c8.9,0,16.1,7.2,16.1,16.1c0,8.9-7.2,16.1-16.1,16.1s-16.1-7.2-16.1-16.1S90,187.3,98.9,187.3z M63.5,219.3c4.4,0,8,3.6,8,8
		s-3.6,8-8,8s-8-3.6-8-8S59.1,219.3,63.5,219.3z M125.1,224.5c3.2,0,5.8,2.6,5.8,5.8c0,3.2-2.6,5.8-5.8,5.8s-5.8-2.6-5.8-5.8
		C119.3,227.1,121.9,224.5,125.1,224.5z"/>
	<path id="text8467" inkscape:connector-curvature="0" class="st0" d="M242.7,163.6v50.5h3.5v-50.5L242.7,163.6z M294.1,163.6v50.5
		h3.5v-50.5L294.1,163.6z M216.5,177.8c-10,0-18.1,7.2-18.1,18.5c0,11.3,8.1,18.3,18.1,18.3c10,0,18.1-6.9,18.1-18.3
		C234.6,185,226.5,177.8,216.5,177.8z M438.7,177.8c-5,0.1-10,2.1-12.7,7v-6.3h-3.5v35.6h3.5v-19.8c0-7.4,5.1-12.9,12.5-13
		c7.7-0.1,12.7,4.3,12.7,12.3v20.5h3.5v-20.6C454.8,183.6,448.2,177.8,438.7,177.8z M323.6,177.8c-10,0-18.1,7.7-18.1,18.4
		c0,11.3,8.1,18.3,18.1,18.3c5.7,0,11.9-2.3,15.4-6.9l-2.5-2c-2.7,3.5-8.2,5.4-12.8,5.4c-7.4,0-13.8-4.8-14.5-13.2h32.1
		C342.6,184,333.6,177.8,323.6,177.8z M174.1,177.9c-6.9,0-12.6,3.5-15.4,8.9v-8.4h-3.5v50.5h3.4v-23.1c3,5.9,8.7,8.9,14.7,8.9
		c10,0,18.1-6.5,18.1-18.5C191.4,184.8,183.8,178.3,174.1,177.9z M366.5,178c-10,0-18.1,7.4-18.1,18.3s8.2,18.4,18.1,18.4
		c5.8,0,11.1-2.6,14.6-8.2v7.6h3.5v-35.6h-3.5v7.8C378.1,180.7,372.3,178,366.5,178z M409.5,178.1c-4.5,0-9.6,1.9-11.8,6.7l-0.1-6.3
		h-3.3v35.6h3.5v-20.8c0-6.5,5.1-11.8,11.8-11.9c2.1,0,4.2,0.5,6.1,1.7l1.6-2.9C414.8,178.7,412.2,178,409.5,178.1L409.5,178.1z
		 M254.1,178.4l14.3,35.2l-6.6,15.3h3.8l21.7-50.5h-3.8l-8.9,21l-4.1,10.4l-4.2-10.3l-8.3-21.1L254.1,178.4z M216.5,181.1
		c8.1,0,14.6,6,14.6,15.2c0,9.2-6.6,14.8-14.6,14.8c-8.1,0-14.6-5.6-14.6-14.8C201.8,187.1,208.4,181.1,216.5,181.1z M323.6,181.1
		c8.6,0,14.4,4.9,14.4,13.7h-28.9C309.9,186.1,316.3,181.1,323.6,181.1z M173.3,181.3c8.1,0,14.6,4.9,14.6,14.9
		c0,10-6.5,15.1-14.6,15.1c-8.2,0-14.4-6.3-14.4-15C158.9,187.6,165,181.3,173.3,181.3z M366.5,181.4c19.8,0,19.8,29.8,0,29.8
		c-8.1,0-14.6-6-14.6-14.9S358.4,181.4,366.5,181.4z"/>
</g>
</svg>
