<?xml version="1.0" standalone="no"?>
<!DOCTYPE svg PUBLIC "-//W3C//DTD SVG 20010904//EN"
 "http://www.w3.org/TR/2001/REC-SVG-20010904/DTD/svg10.dtd">
<svg version="1.0" xmlns="http://www.w3.org/2000/svg"
 width="260.000000pt" height="260.000000pt" viewBox="0 0 260.000000 260.000000"
 preserveAspectRatio="xMidYMid meet">
<metadata>
Created by potrace 1.11, written by Peter Selinger 2001-2013
</metadata>
<g transform="translate(0.000000,260.000000) scale(0.100000,-0.100000)"
fill="#000000" stroke="none">
<path d="M1095 2585 c-38 -7 -84 -16 -102 -19 -61 -12 -209 -68 -290 -111
-158 -84 -258 -161 -378 -295 -115 -129 -203 -282 -260 -453 -49 -147 -64
-253 -61 -437 4 -223 32 -340 131 -546 167 -345 468 -588 859 -692 93 -24 117
-26 301 -27 132 0 220 5 260 13 534 120 930 523 1029 1047 23 125 16 413 -13
530 -12 50 -25 97 -28 105 -3 8 -7 20 -9 25 -18 62 -97 227 -125 261 -5 6 -5
15 -1 19 4 5 2 5 -4 2 -7 -4 -17 5 -24 22 -6 16 -26 45 -43 64 -73 80 -87 100
-80 110 3 7 3 9 -1 5 -5 -4 -48 28 -96 70 -176 153 -411 266 -640 307 -71 13
-354 13 -425 0z"/>
</g>
</svg>
