<?xml version="1.0" standalone="no"?>
<!DOCTYPE svg PUBLIC "-//W3C//DTD SVG 20010904//EN"
 "http://www.w3.org/TR/2001/REC-SVG-20010904/DTD/svg10.dtd">
<svg version="1.0" xmlns="http://www.w3.org/2000/svg"
 width="350.000000pt" height="350.000000pt" viewBox="0 0 350.000000 350.000000"
 preserveAspectRatio="xMidYMid meet">
<metadata>
Created by potrace 1.11, written by Peter Selinger 2001-2013
</metadata>
<g transform="translate(0.000000,350.000000) scale(0.100000,-0.100000)"
fill="#000000" stroke="none">
<path d="M2360 3489 c-76 -15 -184 -75 -247 -137 -207 -205 -205 -534 7 -740
l64 -63 -64 -195 -65 -195 -55 8 c-91 13 -259 8 -330 -11 -91 -23 -193 -74
-274 -135 l-69 -52 -96 102 c-53 57 -95 108 -94 114 1 5 12 37 24 70 16 46 20
75 16 126 -23 331 -471 413 -617 114 -21 -42 -25 -64 -25 -140 1 -77 5 -97 27
-140 32 -62 103 -129 166 -158 35 -16 67 -21 127 -22 68 0 89 4 138 29 57 28
59 28 76 10 9 -11 55 -58 101 -106 l83 -87 -25 -39 c-42 -62 -75 -133 -99
-212 -20 -63 -24 -96 -24 -210 0 -114 4 -147 24 -210 24 -78 60 -156 93 -203
11 -16 19 -30 17 -31 -2 -2 -105 -57 -227 -123 l-224 -121 -46 46 c-65 63
-171 111 -258 119 -303 25 -535 -248 -459 -542 67 -258 357 -392 603 -280 75
34 163 122 203 203 32 64 34 72 34 177 0 61 -4 126 -8 145 l-8 35 229 123
c126 67 232 122 235 122 4 0 35 -23 69 -51 73 -58 195 -120 288 -145 88 -24
291 -25 376 -1 86 24 158 57 238 111 l69 46 86 -92 c47 -51 108 -116 134 -145
l49 -52 -29 -58 c-25 -51 -28 -69 -28 -148 1 -79 4 -97 29 -147 35 -69 94
-128 166 -165 48 -24 66 -28 145 -28 78 0 97 4 147 28 69 34 131 94 166 162
24 45 27 61 27 150 0 118 -21 171 -95 245 -74 74 -127 95 -245 95 -88 0 -106
-3 -150 -26 l-50 -26 -130 140 c-71 76 -131 143 -133 147 -2 5 12 30 31 57 51
71 94 162 119 250 18 63 22 103 21 210 l0 132 151 77 151 77 35 -33 c59 -56
133 -84 221 -85 68 0 84 4 145 35 120 61 181 169 172 304 -8 117 -62 202 -165
263 -61 35 -184 44 -262 18 -64 -21 -144 -92 -179 -159 -24 -45 -27 -62 -27
-147 l0 -95 -138 -73 c-77 -40 -140 -71 -142 -69 -1 2 -18 35 -38 73 -70 141
-190 267 -320 335 -26 14 -47 29 -47 35 0 5 27 92 61 193 50 150 64 182 77
178 52 -16 114 -26 164 -26 266 -1 492 207 514 473 8 97 -8 176 -56 273 -103
210 -332 319 -570 273z"/>
</g>
</svg>
